<svg width="57" height="14" viewBox="0 0 57 14" fill="none" xmlns="http://www.w3.org/2000/svg">
<path d="M-8.98317e-05 1.036C0.270577 1.04533 0.625244 1.05466 1.06391 1.064C1.51191 1.07333 1.95991 1.078 2.40791 1.078C2.87458 1.078 3.32258 1.07333 3.75191 1.064C4.18124 1.05466 4.48458 1.05 4.66191 1.05C6.08058 1.05 7.13524 1.30666 7.82591 1.82C8.52591 2.33333 8.87591 2.996 8.87591 3.808C8.87591 4.144 8.80591 4.49866 8.66591 4.872C8.52591 5.236 8.28791 5.57666 7.95191 5.894C7.61591 6.202 7.15391 6.454 6.56591 6.65C5.98724 6.846 5.24991 6.944 4.35391 6.944H2.86991V6.664H4.21391C4.68991 6.664 5.04924 6.538 5.29191 6.286C5.54391 6.034 5.71191 5.70266 5.79591 5.292C5.88924 4.88133 5.93591 4.438 5.93591 3.962C5.93591 3.07533 5.83324 2.41266 5.62791 1.974C5.43191 1.53533 5.08658 1.316 4.59191 1.316C4.27458 1.316 4.06924 1.39533 3.97591 1.554C3.88258 1.71266 3.83591 2.03466 3.83591 2.52V9.324C3.83591 9.70666 3.87324 9.99133 3.94791 10.178C4.03191 10.3647 4.18591 10.486 4.40991 10.542C4.63391 10.598 4.96058 10.626 5.38991 10.626V10.948C5.07258 10.9387 4.65724 10.9293 4.14391 10.92C3.63058 10.9107 3.08458 10.906 2.50591 10.906C2.07658 10.906 1.64724 10.9107 1.21791 10.92C0.788577 10.9293 0.382577 10.9387 -8.98317e-05 10.948V10.668C0.289244 10.6493 0.50391 10.612 0.64391 10.556C0.78391 10.5 0.877244 10.388 0.92391 10.22C0.970577 10.052 0.99391 9.8 0.99391 9.464V2.52C0.99391 2.17466 0.970577 1.92266 0.92391 1.764C0.877244 1.596 0.779244 1.484 0.62991 1.428C0.48991 1.36266 0.27991 1.32533 -8.98317e-05 1.316V1.036ZM13.1484 3.486C13.9698 3.486 14.6138 3.72866 15.0804 4.214C15.5564 4.69 15.7944 5.49266 15.7944 6.622H11.4124L11.3844 6.356H13.7504C13.7598 5.89866 13.7411 5.47866 13.6944 5.096C13.6478 4.704 13.5731 4.39133 13.4704 4.158C13.3678 3.92466 13.2278 3.808 13.0504 3.808C12.7984 3.808 12.5931 4.00866 12.4344 4.41C12.2758 4.802 12.1731 5.47866 12.1264 6.44L12.1824 6.552C12.1731 6.64533 12.1684 6.73866 12.1684 6.832C12.1684 6.92533 12.1684 7.02333 12.1684 7.126C12.1684 7.77933 12.2478 8.288 12.4064 8.652C12.5744 9.016 12.7798 9.268 13.0224 9.408C13.2744 9.548 13.5264 9.618 13.7784 9.618C13.9091 9.618 14.0631 9.59933 14.2404 9.562C14.4271 9.52466 14.6278 9.44066 14.8424 9.31C15.0571 9.17 15.2671 8.96 15.4724 8.68L15.7104 8.764C15.5984 9.13733 15.4164 9.51066 15.1644 9.884C14.9218 10.248 14.6044 10.5513 14.2124 10.794C13.8204 11.0273 13.3444 11.144 12.7844 11.144C12.1871 11.144 11.6411 11.0227 11.1464 10.78C10.6611 10.5373 10.2738 10.136 9.98443 9.576C9.69509 9.016 9.55043 8.26466 9.55043 7.322C9.55043 6.426 9.70909 5.698 10.0264 5.138C10.3438 4.56866 10.7731 4.15333 11.3144 3.892C11.8651 3.62133 12.4764 3.486 13.1484 3.486ZM22.1247 3.486C22.5541 3.486 22.8901 3.542 23.1327 3.654C23.3847 3.75666 23.5761 3.88733 23.7067 4.046C23.8467 4.214 23.9494 4.438 24.0147 4.718C24.0801 4.998 24.1127 5.376 24.1127 5.852V9.646C24.1127 10.038 24.1687 10.304 24.2807 10.444C24.4021 10.584 24.6074 10.654 24.8967 10.654V10.948C24.7101 10.9387 24.4254 10.9293 24.0427 10.92C23.6694 10.9013 23.3007 10.892 22.9367 10.892C22.5447 10.892 22.1621 10.9013 21.7887 10.92C21.4154 10.9293 21.1354 10.9387 20.9487 10.948V10.654C21.1914 10.654 21.3594 10.584 21.4527 10.444C21.5461 10.304 21.5927 10.038 21.5927 9.646V5.096C21.5927 4.9 21.5694 4.73666 21.5227 4.606C21.4761 4.47533 21.4014 4.37733 21.2987 4.312C21.2054 4.24666 21.0747 4.214 20.9067 4.214C20.7387 4.214 20.5754 4.256 20.4167 4.34C20.2674 4.424 20.1414 4.54533 20.0387 4.704C19.9454 4.85333 19.8987 5.026 19.8987 5.222V9.646C19.8987 10.038 19.9454 10.304 20.0387 10.444C20.1414 10.584 20.3094 10.654 20.5427 10.654V10.948C20.3654 10.9387 20.1041 10.9293 19.7587 10.92C19.4134 10.9013 19.0587 10.892 18.6947 10.892C18.3027 10.892 17.9061 10.9013 17.5047 10.92C17.1034 10.9293 16.8001 10.9387 16.5947 10.948V10.654C16.8841 10.654 17.0847 10.584 17.1967 10.444C17.3181 10.304 17.3787 10.038 17.3787 9.646V5.208C17.3787 4.788 17.3227 4.48 17.2107 4.284C17.0987 4.07866 16.8934 3.976 16.5947 3.976V3.682C16.8934 3.71 17.1827 3.724 17.4627 3.724C17.9294 3.724 18.3634 3.71 18.7647 3.682C19.1754 3.64466 19.5534 3.59333 19.8987 3.528V4.536C20.1227 4.16266 20.4214 3.89666 20.7947 3.738C21.1774 3.57 21.6207 3.486 22.1247 3.486ZM28.3564 13.58C27.7217 13.58 27.171 13.5287 26.7044 13.426C26.247 13.3327 25.8924 13.1927 25.6404 13.006C25.3884 12.8287 25.2624 12.6093 25.2624 12.348C25.2624 12.0867 25.393 11.8393 25.6544 11.606C25.9157 11.382 26.331 11.2047 26.9004 11.074L27.0404 11.298C26.891 11.4753 26.7884 11.634 26.7324 11.774C26.6857 11.9233 26.6624 12.0633 26.6624 12.194C26.6624 12.558 26.8257 12.838 27.1524 13.034C27.4884 13.2393 27.955 13.342 28.5524 13.342C28.9724 13.342 29.3224 13.2813 29.6024 13.16C29.8917 13.048 30.1064 12.8893 30.2464 12.684C30.3957 12.4787 30.4704 12.2453 30.4704 11.984C30.4704 11.7227 30.3724 11.4987 30.1764 11.312C29.9804 11.1253 29.5837 11.032 28.9864 11.032H28.2304C27.801 11.032 27.4417 10.976 27.1524 10.864C26.863 10.752 26.6437 10.598 26.4944 10.402C26.345 10.1967 26.2704 9.95866 26.2704 9.688C26.2704 9.24933 26.443 8.88066 26.7884 8.582C27.1337 8.28333 27.577 8.01733 28.1184 7.784L28.2444 7.896C28.151 7.96133 28.053 8.04066 27.9504 8.134C27.8477 8.22733 27.7964 8.36266 27.7964 8.54C27.7964 8.83866 27.9644 8.988 28.3004 8.988H29.6584C30.265 8.988 30.7924 9.05333 31.2404 9.184C31.6977 9.31466 32.0524 9.52933 32.3044 9.828C32.5657 10.1173 32.6964 10.5 32.6964 10.976C32.6964 11.4427 32.5424 11.872 32.2344 12.264C31.9357 12.6653 31.469 12.9827 30.8344 13.216C30.1997 13.4587 29.3737 13.58 28.3564 13.58ZM28.5524 7.966C27.9737 7.966 27.4557 7.88666 26.9984 7.728C26.5504 7.56933 26.1957 7.32666 25.9344 7C25.673 6.664 25.5424 6.23933 25.5424 5.726C25.5424 5.21266 25.673 4.79266 25.9344 4.466C26.1957 4.13 26.5504 3.88266 26.9984 3.724C27.4557 3.56533 27.9737 3.486 28.5524 3.486C29.131 3.486 29.6444 3.56533 30.0924 3.724C30.5497 3.88266 30.909 4.13 31.1704 4.466C31.4317 4.79266 31.5624 5.21266 31.5624 5.726C31.5624 6.23933 31.4317 6.664 31.1704 7C30.909 7.32666 30.5497 7.56933 30.0924 7.728C29.6444 7.88666 29.131 7.966 28.5524 7.966ZM28.5524 7.714C28.7297 7.714 28.8697 7.56933 28.9724 7.28C29.075 6.99066 29.1264 6.47266 29.1264 5.726C29.1264 4.97933 29.075 4.46133 28.9724 4.172C28.8697 3.88266 28.7297 3.738 28.5524 3.738C28.375 3.738 28.235 3.88266 28.1324 4.172C28.0297 4.46133 27.9784 4.97933 27.9784 5.726C27.9784 6.47266 28.0297 6.99066 28.1324 7.28C28.235 7.56933 28.375 7.714 28.5524 7.714ZM30.8344 4.718L30.5404 4.62C30.6897 4.228 30.9184 3.91533 31.2264 3.682C31.5437 3.43933 31.889 3.318 32.2624 3.318C32.589 3.318 32.8317 3.40666 32.9904 3.584C33.149 3.76133 33.2284 3.98066 33.2284 4.242C33.2284 4.51266 33.1537 4.72266 33.0044 4.872C32.8644 5.02133 32.6917 5.096 32.4864 5.096C32.309 5.096 32.1457 5.03533 31.9964 4.914C31.8564 4.79266 31.777 4.61066 31.7584 4.368C31.7397 4.12533 31.8284 3.81733 32.0244 3.444L32.0804 3.542C31.7537 3.66333 31.497 3.81266 31.3104 3.99C31.1237 4.16733 30.965 4.41 30.8344 4.718ZM41.1987 3.528V9.422C41.1987 9.842 41.2547 10.1547 41.3667 10.36C41.4881 10.556 41.6934 10.654 41.9827 10.654V10.948C41.6934 10.92 41.4041 10.906 41.1147 10.906C40.6481 10.906 40.2141 10.92 39.8127 10.948C39.4114 10.976 39.0334 11.0273 38.6787 11.102V10.094C38.4547 10.4673 38.1514 10.738 37.7687 10.906C37.3954 11.0647 36.9567 11.144 36.4527 11.144C36.0234 11.144 35.6827 11.088 35.4307 10.976C35.1881 10.8733 35.0014 10.7427 34.8707 10.584C34.7307 10.416 34.6281 10.192 34.5627 9.912C34.4974 9.632 34.4647 9.254 34.4647 8.778V5.208C34.4647 4.788 34.4087 4.48 34.2967 4.284C34.1847 4.07866 33.9794 3.976 33.6807 3.976V3.682C33.9794 3.71 34.2687 3.724 34.5487 3.724C35.0154 3.724 35.4494 3.71 35.8507 3.682C36.2614 3.64466 36.6394 3.59333 36.9847 3.528V9.534C36.9847 9.73 37.0081 9.89333 37.0547 10.024C37.1014 10.1547 37.1761 10.2527 37.2787 10.318C37.3814 10.3833 37.5121 10.416 37.6707 10.416C37.8481 10.416 38.0114 10.374 38.1607 10.29C38.3101 10.206 38.4314 10.0893 38.5247 9.94C38.6274 9.78133 38.6787 9.604 38.6787 9.408V5.208C38.6787 4.788 38.6227 4.48 38.5107 4.284C38.3987 4.07866 38.1934 3.976 37.8947 3.976V3.682C38.1934 3.71 38.4827 3.724 38.7627 3.724C39.2294 3.724 39.6634 3.71 40.0647 3.682C40.4754 3.64466 40.8534 3.59333 41.1987 3.528ZM44.7697 -2.86102e-06C45.2551 -2.86102e-06 45.6284 0.102664 45.8897 0.307997C46.1604 0.503998 46.2957 0.802664 46.2957 1.204C46.2957 1.60533 46.1604 1.90866 45.8897 2.114C45.6284 2.31 45.2551 2.408 44.7697 2.408C44.2844 2.408 43.9064 2.31 43.6357 2.114C43.3744 1.90866 43.2437 1.60533 43.2437 1.204C43.2437 0.802664 43.3744 0.503998 43.6357 0.307997C43.9064 0.102664 44.2844 -2.86102e-06 44.7697 -2.86102e-06ZM46.1137 3.528V9.646C46.1137 10.038 46.1697 10.304 46.2817 10.444C46.4031 10.584 46.6084 10.654 46.8977 10.654V10.948C46.7111 10.9387 46.4311 10.9293 46.0577 10.92C45.6844 10.9013 45.3017 10.892 44.9097 10.892C44.5177 10.892 44.1211 10.9013 43.7197 10.92C43.3184 10.9293 43.0151 10.9387 42.8097 10.948V10.654C43.0991 10.654 43.2997 10.584 43.4117 10.444C43.5331 10.304 43.5937 10.038 43.5937 9.646V5.208C43.5937 4.788 43.5377 4.48 43.4257 4.284C43.3137 4.07866 43.1084 3.976 42.8097 3.976V3.682C43.1084 3.71 43.3977 3.724 43.6777 3.724C44.1444 3.724 44.5784 3.71 44.9797 3.682C45.3904 3.64466 45.7684 3.59333 46.1137 3.528ZM53.2408 3.486C53.6702 3.486 54.0062 3.542 54.2488 3.654C54.5008 3.75666 54.6922 3.88733 54.8228 4.046C54.9628 4.214 55.0655 4.438 55.1308 4.718C55.1962 4.998 55.2288 5.376 55.2288 5.852V9.646C55.2288 10.038 55.2848 10.304 55.3968 10.444C55.5182 10.584 55.7235 10.654 56.0128 10.654V10.948C55.8262 10.9387 55.5415 10.9293 55.1588 10.92C54.7855 10.9013 54.4168 10.892 54.0528 10.892C53.6608 10.892 53.2782 10.9013 52.9048 10.92C52.5315 10.9293 52.2515 10.9387 52.0648 10.948V10.654C52.3075 10.654 52.4755 10.584 52.5688 10.444C52.6622 10.304 52.7088 10.038 52.7088 9.646V5.096C52.7088 4.9 52.6855 4.73666 52.6388 4.606C52.5922 4.47533 52.5175 4.37733 52.4148 4.312C52.3215 4.24666 52.1908 4.214 52.0228 4.214C51.8548 4.214 51.6915 4.256 51.5328 4.34C51.3835 4.424 51.2575 4.54533 51.1548 4.704C51.0615 4.85333 51.0148 5.026 51.0148 5.222V9.646C51.0148 10.038 51.0615 10.304 51.1548 10.444C51.2575 10.584 51.4255 10.654 51.6588 10.654V10.948C51.4815 10.9387 51.2202 10.9293 50.8748 10.92C50.5295 10.9013 50.1748 10.892 49.8108 10.892C49.4188 10.892 49.0222 10.9013 48.6208 10.92C48.2195 10.9293 47.9162 10.9387 47.7108 10.948V10.654C48.0002 10.654 48.2008 10.584 48.3128 10.444C48.4342 10.304 48.4948 10.038 48.4948 9.646V5.208C48.4948 4.788 48.4388 4.48 48.3268 4.284C48.2148 4.07866 48.0095 3.976 47.7108 3.976V3.682C48.0095 3.71 48.2988 3.724 48.5788 3.724C49.0455 3.724 49.4795 3.71 49.8808 3.682C50.2915 3.64466 50.6695 3.59333 51.0148 3.528V4.536C51.2388 4.16266 51.5375 3.89666 51.9108 3.738C52.2935 3.57 52.7368 3.486 53.2408 3.486Z" fill="currentColor"/>
</svg>
