<?xml version="1.0" standalone="no"?>
<!DOCTYPE svg PUBLIC "-//W3C//DTD SVG 20010904//EN"
 "http://www.w3.org/TR/2001/REC-SVG-20010904/DTD/svg10.dtd">
<svg version="1.0" xmlns="http://www.w3.org/2000/svg"
 width="600.000000pt" height="600.000000pt" viewBox="0 0 600.000000 600.000000"
 preserveAspectRatio="xMidYMid meet">
<g transform="translate(0.000000,600.000000) scale(0.050000,-0.050000)"
fill="currentColor" stroke="none">
<path d="M6008 9552 c-405 -93 -701 -407 -838 -892 -130 -458 -162 -545 -309
-839 -557 -1115 -655 -2028 -399 -3701 115 -749 78 -919 -256 -1156 -73 -52
-190 -137 -261 -190 -105 -77 -150 -98 -247 -111 -115 -16 -156 -32 -134 -54
81 -80 4090 -77 4221 4 60 37 -103 53 -613 62 -548 9 -564 10 -632 56 -115 77
-171 89 -410 89 -243 0 -290 20 -290 124 0 43 2 43 -89 5 -100 -42 -384 -34
-374 11 18 79 2 327 -27 441 -71 273 -37 467 111 643 99 117 99 127 0 76 -225
-114 -302 -37 -244 245 124 596 106 874 -87 1369 -107 272 -112 354 -39 587
64 200 83 195 41 -12 -47 -227 -41 -297 40 -479 221 -493 255 -834 134 -1370
-72 -322 -11 -397 200 -245 400 285 594 1086 446 1843 -59 303 -66 520 -22
690 31 119 85 235 61 132 -75 -329 -58 -556 28 -368 125 274 131 308 126 698
-6 398 10 492 112 652 l59 93 -161 95 c-309 184 -371 289 -349 582 40 538 684
813 983 421 69 -91 65 -124 -33 -229 l-83 -91 69 -24 c39 -13 109 -44 157 -69
l87 -44 -104 -102 c-58 -56 -128 -140 -155 -188 -28 -47 -66 -86 -84 -86 -40
0 -372 53 -443 70 -27 7 0 -15 60 -48 61 -33 178 -75 260 -94 177 -40 193 -56
312 -293 620 -1234 390 -3156 -510 -4265 -307 -378 -429 -571 -412 -649 l12
-56 254 -9 c265 -10 336 -29 412 -114 34 -37 61 -42 225 -42 203 0 214 7 132
84 -108 101 -179 123 -435 132 -326 12 -339 26 -213 222 73 113 138 256 211
463 18 50 78 163 134 250 738 1158 854 2877 273 4038 -133 267 -139 320 -45
443 158 207 417 319 807 351 139 11 285 28 323 36 l70 15 -102 100 c-114 112
-232 160 -518 213 -211 39 -268 65 -472 218 -340 253 -652 339 -970 267z
m1732 -707 l90 -42 -102 -1 c-57 -1 -209 -20 -338 -43 -295 -51 -584 -11 -448
62 171 92 624 106 798 24z m-2530 -5945 l-13 -60 121 0 122 0 0 -80 0 -80
-375 0 -375 1 200 98 c110 53 227 116 260 138 78 52 75 53 60 -17z m1165 -215
c86 -56 45 -65 -60 -13 -58 29 -109 57 -115 63 -22 22 133 -22 175 -50z"/>
<path d="M6395 9038 c-44 -25 -46 -124 -4 -167 44 -43 121 -39 169 9 101 101
-37 233 -165 158z"/>
</g>
</svg>
